<svg width="244" height="31" viewBox="0 0 244 31" fill="none" xmlns="http://www.w3.org/2000/svg">
<path d="M15.464 30.294C12.748 30.294 10.242 29.664 7.946 28.404C5.678 27.116 3.872 25.338 2.528 23.07C1.212 20.774 0.554 18.198 0.554 15.342C0.554 12.486 1.212 9.924 2.528 7.656C3.872 5.388 5.678 3.624 7.946 2.364C10.242 1.076 12.748 0.431998 15.464 0.431998C18.208 0.431998 20.714 1.076 22.982 2.364C25.278 3.624 27.084 5.388 28.4 7.656C29.716 9.924 30.374 12.486 30.374 15.342C30.374 18.198 29.716 20.774 28.4 23.07C27.084 25.338 25.278 27.116 22.982 28.404C20.714 29.664 18.208 30.294 15.464 30.294ZM15.464 26.136C17.396 26.136 19.118 25.702 20.63 24.834C22.142 23.938 23.318 22.678 24.158 21.054C25.026 19.402 25.46 17.498 25.46 15.342C25.46 13.186 25.026 11.296 24.158 9.672C23.318 8.048 22.142 6.802 20.63 5.934C19.118 5.066 17.396 4.632 15.464 4.632C13.532 4.632 11.81 5.066 10.298 5.934C8.786 6.802 7.596 8.048 6.728 9.672C5.888 11.296 5.468 13.186 5.468 15.342C5.468 17.498 5.888 19.402 6.728 21.054C7.596 22.678 8.786 23.938 10.298 24.834C11.81 25.702 13.532 26.136 15.464 26.136ZM64.4435 0.809998L53.4815 30H47.9375L36.9335 0.809998H42.0575L50.7095 25.086L59.4035 0.809998H64.4435ZM77.4357 4.674V13.242H87.5157V17.148H77.4357V26.094H88.7757V30H72.6477V0.767998H88.7757V4.674H77.4357ZM114.035 30L107.315 18.324H103.661V30H98.873V0.809998H108.953C111.193 0.809998 113.083 1.202 114.623 1.986C116.191 2.77 117.353 3.82 118.109 5.136C118.893 6.452 119.285 7.922 119.285 9.546C119.285 11.45 118.725 13.186 117.605 14.754C116.513 16.294 114.819 17.344 112.523 17.904L119.747 30H114.035ZM103.661 14.502H108.953C110.745 14.502 112.089 14.054 112.985 13.158C113.909 12.262 114.371 11.058 114.371 9.546C114.371 8.034 113.923 6.858 113.027 6.018C112.131 5.15 110.773 4.716 108.953 4.716H103.661V14.502ZM148.468 0.809998V4.716H140.698V30H135.91V4.716H128.098V0.809998H148.468ZM162.305 4.674V13.242H172.385V17.148H162.305V26.094H173.645V30H157.517V0.767998H173.645V4.674H162.305ZM182.147 15.342C182.147 12.486 182.805 9.924 184.121 7.656C185.465 5.388 187.271 3.624 189.539 2.364C191.835 1.076 194.341 0.431998 197.057 0.431998C200.165 0.431998 202.923 1.202 205.331 2.742C207.767 4.254 209.531 6.41 210.623 9.21H204.869C204.113 7.67 203.063 6.522 201.719 5.766C200.375 5.01 198.821 4.632 197.057 4.632C195.125 4.632 193.403 5.066 191.891 5.934C190.379 6.802 189.189 8.048 188.321 9.672C187.481 11.296 187.061 13.186 187.061 15.342C187.061 17.498 187.481 19.388 188.321 21.012C189.189 22.636 190.379 23.896 191.891 24.792C193.403 25.66 195.125 26.094 197.057 26.094C198.821 26.094 200.375 25.716 201.719 24.96C203.063 24.204 204.113 23.056 204.869 21.516H210.623C209.531 24.316 207.767 26.472 205.331 27.984C202.923 29.496 200.165 30.252 197.057 30.252C194.313 30.252 191.807 29.622 189.539 28.362C187.271 27.074 185.465 25.296 184.121 23.028C182.805 20.76 182.147 18.198 182.147 15.342ZM243.737 0.809998V30H238.949V17.232H225.215V30H220.427V0.809998H225.215V13.326H238.949V0.809998H243.737Z" fill="#122633"/>
</svg>
